<svg width="27" height="27" viewBox="0 0 27 27" fill="none" xmlns="http://www.w3.org/2000/svg">
<path fill-rule="evenodd" clip-rule="evenodd" d="M9.55409 0C9.09527 0 8.72332 0.371947 8.72332 0.830768L8.72332 8.72307C3.9057 8.72307 0.000244141 12.6285 0.000244141 17.4461C0.000244141 22.2638 3.9057 26.1692 8.72332 26.1692H16.6156C17.0744 26.1692 17.4464 25.7973 17.4464 25.3385L17.4464 17.4461C22.264 17.4461 26.1695 13.5407 26.1695 8.72307C26.1695 3.90545 22.264 0 17.4464 0H9.55409ZM17.4464 17.4461L17.4464 9.55384C17.4464 9.09502 17.0744 8.72307 16.6156 8.72307H8.72332L8.72332 16.6154C8.72332 17.0742 9.09527 17.4461 9.55409 17.4461H17.4464Z" fill="#CB3CFF"/>
<path d="M9.46051 0C9.05339 0 8.72335 0.330038 8.72335 0.737161L8.72335 8.72307H16.7093C17.1164 8.72307 17.4464 9.05311 17.4464 9.46024L17.4464 17.4461C22.264 17.4461 26.1695 13.5407 26.1695 8.72307C26.1695 3.90545 22.264 0 17.4464 0H9.46051Z" fill="#00C2FF"/>
</svg>
