<svg width="14" height="15" viewBox="0 0 14 15" fill="none" xmlns="http://www.w3.org/2000/svg">
<path d="M6.57786 1.0614C6.76631 0.737853 7.23373 0.737853 7.42219 1.0614L9.41871 4.48922C9.48774 4.60774 9.60342 4.69178 9.73747 4.72081L13.6145 5.56036C13.9804 5.63961 14.1249 6.08415 13.8754 6.36337L11.2323 9.32142C11.1409 9.4237 11.0967 9.55969 11.1105 9.69615L11.5101 13.6428C11.5479 14.0154 11.1697 14.2901 10.8271 14.1391L7.19703 12.5395C7.07152 12.4842 6.92853 12.4842 6.80302 12.5395L3.17298 14.1391C2.83034 14.2901 2.45219 14.0154 2.48991 13.6428L2.8895 9.69615C2.90332 9.55969 2.85914 9.4237 2.76775 9.32142L0.124663 6.36337C-0.124818 6.08415 0.0196233 5.63961 0.385574 5.56036L4.26257 4.72081C4.39663 4.69178 4.51231 4.60774 4.58134 4.48922L6.57786 1.0614Z" fill="#999999"/>
</svg>
